# xmcd
#
# Track frame offsets: 
#        150
#        12080
#        25214
#        38575
#        51817
#        64118
#        77130
#        90615
#        104744
#        118865
#        132864
#        145981
#        160105
#        173733
#        187436
#        201531
#        214462
#        228418
#        247344
#        261392
#        274676
#        288687
#        303042
#        315342
#
# Disc length: 4348 seconds
#
# Revision: 0
# Processed by: cddbd v1.5.2PL0 Copyright (c) Steve Scherf et al.
# Submitted via: ExactAudioCopyFreeDBPlugin 1.0
#
DISCID=6d10fa18
DTITLE=Viola McCoy - Complete Recorded Works Vol. 2 (1924-1926)
DYEAR=1995
DGENRE=Blues
TTITLE0=I've Got the World in a Jug
TTITLE1=I Ain't Gonna Marry, Ain't Gonna Settle Down
TTITLE2=If Your Good Man Quits You, Don't Wear No Black
TTITLE3=West Indies Blues
TTITLE4=It Makes No Difference Now
TTITLE5=I Don't Want Nobody That Don't Want Me
TTITLE6=It Makes No Difference Now
TTITLE7=I Don't Want Nobody That Don't Want Me
TTITLE8=Mamma, Mamma (Don't Love Her Papa No More)
TTITLE9=Mama's Gone, Goodbye
TTITLE10=You Don't Know My Mind
TTITLE11=Buzzin' Around
TTITLE12=How Come You Do Me Like You Do
TTITLE13=Clearing House Blues
TTITLE14=Keep On Going
TTITLE15=Get Yourself a Monkey Man and Make Him Strut His Stuff
TTITLE16=Keep On Going
TTITLE17=Memphis Bound
TTITLE18=Stomp Your Blues Away
TTITLE19=Shake That Thing
TTITLE20=South Street Blues
TTITLE21=Charleston Blues
TTITLE22=I'm Saving It All for You
TTITLE23=Papa, If You Can't Do Better (I'll Let a Better Papa Move In)
EXTD=
EXTT0=
EXTT1=
EXTT2=
EXTT3=
EXTT4=
EXTT5=
EXTT6=
EXTT7=
EXTT8=
EXTT9=
EXTT10=
EXTT11=
EXTT12=
EXTT13=
EXTT14=
EXTT15=
EXTT16=
EXTT17=
EXTT18=
EXTT19=
EXTT20=
EXTT21=
EXTT22=
EXTT23=
PLAYORDER=
